{"title":"Ek Villain 2014 Hindi Movies Non-Retail DVDRip x264 AAC ~ â˜»rDXâ˜»","uid":10444389,"size":741243785,"categoryP":"video","categoryS":"movies","magnet":"?xt=urn:btih:9ccccc904ab932e3474f94efef8269c7b50720c0&amp;dn=Ek+Villain+2014+Hindi+Movies+Non-Retail+DVDRip+x264+AAC+%7E+%E2%98%BBrDX%E2%98%BB&amp;tr=udp%3A%2F%2Ftracker.openbittorrent.com%3A80&amp;tr=udp%3A%2F%2Fopen.demonii.com%3A1337&amp;tr=udp%3A%2F%2Ftracker.coppersurfer.tk%3A6969&amp;tr=udp%3A%2F%2Fexodus.desync.com%3A6969","seeders":1,"leechers":0,"uploader":"basicssom","files":2,"time":1403932285,"description":"----------------------------------------------------------------\nEk Villain 2014 Hindi Movies Non-Retail DVDRip x264 AAC with Sample ~ â˜»rDXâ˜»\n\nPOSTER:\n &lt;a href=&quot;\nhttp://istoreimg.com/upload/big/2014/06/27/53ad39fcae6aa.jpg&quot; rel=&quot;nofollow&quot; target=&quot;_NEW&quot;&gt;\nhttp://istoreimg.com/upload/big/2014/06/27/53ad39fcae6aa.jpg&lt;/a&gt;\n\nSCREEN SHOTS :\n &lt;a href=&quot;\nhttp://moviesreview.co.nr/2014/6/EkVillainpd/1.html&quot; rel=&quot;nofollow&quot; target=&quot;_NEW&quot;&gt;\nhttp://moviesreview.co.nr/2014/6/EkVillainpd/1.html&lt;/a&gt; &lt;a href=&quot;\nhttp://moviesreview.co.nr/2014/6/EkVillainpd/2.html&quot; rel=&quot;nofollow&quot; target=&quot;_NEW&quot;&gt;\nhttp://moviesreview.co.nr/2014/6/EkVillainpd/2.html&lt;/a&gt; &lt;a href=&quot;\nhttp://moviesreview.co.nr/2014/6/EkVillainpd/3.html&quot; rel=&quot;nofollow&quot; target=&quot;_NEW&quot;&gt;\nhttp://moviesreview.co.nr/2014/6/EkVillainpd/3.html&lt;/a&gt; &lt;a href=&quot;\nhttp://moviesreview.co.nr/2014/6/EkVillainpd/4.html&quot; rel=&quot;nofollow&quot; target=&quot;_NEW&quot;&gt;\nhttp://moviesreview.co.nr/2014/6/EkVillainpd/4.html&lt;/a&gt; &lt;a href=&quot;\nhttp://moviesreview.co.nr/2014/6/EkVillainpd/5.html&quot; rel=&quot;nofollow&quot; target=&quot;_NEW&quot;&gt;\nhttp://moviesreview.co.nr/2014/6/EkVillainpd/5.html&lt;/a&gt; &lt;a href=&quot;\nhttp://moviesreview.co.nr/2014/6/EkVillainpd/6.html&quot; rel=&quot;nofollow&quot; target=&quot;_NEW&quot;&gt;\nhttp://moviesreview.co.nr/2014/6/EkVillainpd/6.html&lt;/a&gt; &lt;a href=&quot;\nhttp://moviesreview.co.nr/2014/6/EkVillainpd/7.html&quot; rel=&quot;nofollow&quot; target=&quot;_NEW&quot;&gt;\nhttp://moviesreview.co.nr/2014/6/EkVillainpd/7.html&lt;/a&gt; &lt;a href=&quot;\nhttp://moviesreview.co.nr/2014/6/EkVillainpd/8.html&quot; rel=&quot;nofollow&quot; target=&quot;_NEW&quot;&gt;\nhttp://moviesreview.co.nr/2014/6/EkVillainpd/8.html&lt;/a&gt; &lt;a href=&quot;\nhttp://moviesreview.co.nr/2014/6/EkVillainpd/9.html&quot; rel=&quot;nofollow&quot; target=&quot;_NEW&quot;&gt;\nhttp://moviesreview.co.nr/2014/6/EkVillainpd/9.html&lt;/a&gt; &lt;a href=&quot;\nhttp://moviesreview.co.nr/2014/6/EkVillainpd/10.html&quot; rel=&quot;nofollow&quot; target=&quot;_NEW&quot;&gt;\nhttp://moviesreview.co.nr/2014/6/EkVillainpd/10.html&lt;/a&gt;\n\nFormat                                   : Matroska\nFormat version                           : Version 4 / Version 2\nFile size                                : 700 MiB\nDuration                                 : 2h 8mn\nOverall bit rate                         : 762 Kbps\nMovie name                               : Ek Villain 2014 Hindi Movies Non-Retail DVDRip AAC ~ rDX ~\n\nVideo\nID                                       : 1\nFormat                                   : AVC\nFormat/Info                              : Advanced Video Codec\nFormat profile                           : &lt;a class=&quot;__cf_email__&quot; href=&quot;/cdn-cgi/l/email-protection&quot; data-cfemail=&quot;2b63424c436b6718051b&quot;&gt;[email&amp;#160;protected]&lt;/a&gt;&lt;script cf-hash='f9e31' type=&quot;text/javascript&quot;&gt;\n/* &lt;![CDATA[ */!function(){try{var t=&quot;currentScript&quot;in document?document.currentScript:function(){for(var t=document.getElementsByTagName(&quot;script&quot;),e=t.length;e--;)if(t[e].getAttribute(&quot;cf-hash&quot;))return t[e]}();if(t&amp;&amp;t.previousSibling){var e,r,n,i,c=t.previousSibling,a=c.getAttribute(&quot;data-cfemail&quot;);if(a){for(e=&quot;&quot;,r=parseInt(a.substr(0,2),16),n=2;a.length-n;n+=2)i=parseInt(a.substr(n,2),16)^r,e+=String.fromCharCode(i);e=document.createTextNode(e),c.parentNode.replaceChild(e,c)}}}catch(u){}}();/* ]]&gt; */&lt;/script&gt;\nFormat settings, CABAC                   : Yes\nFormat settings, ReFrames                : 4 frames\nCodec ID                                 : V_MPEG4/ISO/AVC\nDuration                                 : 2h 8mn\nBit rate                                 : 680 Kbps\nWidth                                    : 640 pixels\nHeight                                   : 272 pixels\nDisplay aspect ratio                     : 2.35:1\nFrame rate mode                          : Constant\nFrame rate                               : 29.970 fps\nColor space                              : YUV\nChroma subsampling                       : 4:2:0\nBit depth                                : 8 bits\nScan type                                : Progressive\nBits/(Pixel*Frame)                       : 0.130\nStream size                              : 612 MiB (88%)\nTitle                                    : ~ rDX ~\nWriting library                          : x264\nLanguage                                 : Hindi\nDefault                                  : Yes\nForced                                   : No\n\nAudio\nID                                       : 2\nFormat                                   : MPEG Audio\nFormat version                           : Version 1\nFormat profile                           : Layer 3\nMode                                     : Joint stereo\nCodec ID                                 : A_MPEG/L3\nCodec ID/Hint                            : MP3\nDuration                                 : 2h 8mn\nBit rate mode                            : Constant\nBit rate                                 : 80.0 Kbps\nChannel(s)                               : 2 channels\nSampling rate                            : 32.0 KHz\nCompression mode                         : Lossy\nStream size                              : 73.5 MiB (10%)\nTitle                                    : ~ rDX ~\nWriting library                          : LAME3.99r\nEncoding settings                        : -m j -V 4 -q 2 -lowpass 13.5 -b 80\nLanguage                                 : Hindi\nDefault                                  : Yes\nForced                                   : No","torrent":{"xt":"urn:btih:9ccccc904ab932e3474f94efef8269c7b50720c0","amp;dn":"Ek+Villain+2014+Hindi+Movies+Non-Retail+DVDRip+x264+AAC+%7E+%E2%98%BBrDX%E2%98%BB","amp;tr":["udp%3A%2F%2Ftracker.openbittorrent.com%3A80","udp%3A%2F%2Fopen.demonii.com%3A1337","udp%3A%2F%2Ftracker.coppersurfer.tk%3A6969","udp%3A%2F%2Fexodus.desync.com%3A6969"],"infoHash":"9ccccc904ab932e3474f94efef8269c7b50720c0","infoHashBuffer":{"type":"Buffer","data":[156,204,204,144,74,185,50,227,71,79,148,239,239,130,105,199,181,7,32,192]},"announce":[],"urlList":[]}}